<svg xmlns="http://www.w3.org/2000/svg" xmlns:svg="http://www.w3.org/2000/svg" xmlns:xlink="http://www.w3.org/1999/xlink" id="svg4715" width="32" height="32" version="1.1"><defs id="defs4717"><linearGradient id="linearGradient4549"><stop style="stop-color:#000;stop-opacity:.27205881" id="stop4551" offset="0"/><stop style="stop-color:#000;stop-opacity:.36764705" id="stop4553" offset="1"/></linearGradient><linearGradient id="linearGradient3924"><stop style="stop-color:#fff;stop-opacity:1" id="stop3926" offset="0"/><stop style="stop-color:#fff;stop-opacity:.23529412" id="stop3928" offset="0"/><stop style="stop-color:#fff;stop-opacity:.15686275" id="stop3930" offset="1"/><stop style="stop-color:#fff;stop-opacity:.39215687" id="stop3932" offset="1"/></linearGradient><radialGradient id="radialGradient3163" cx="4.993" cy="43.5" r="2.5" fx="4.993" fy="43.5" gradientTransform="matrix(2.003784,0,0,1.4,27.98813,-17.4)" gradientUnits="userSpaceOnUse" xlink:href="#linearGradient3688-166-749"/><linearGradient id="linearGradient3688-166-749"><stop style="stop-color:#181818;stop-opacity:1" id="stop2883" offset="0"/><stop style="stop-color:#181818;stop-opacity:0" id="stop2885" offset="1"/></linearGradient><radialGradient id="radialGradient3165" cx="4.993" cy="43.5" r="2.5" fx="4.993" fy="43.5" gradientTransform="matrix(2.003784,0,0,1.4,-20.01187,-104.4)" gradientUnits="userSpaceOnUse" xlink:href="#linearGradient3688-464-309"/><linearGradient id="linearGradient3688-464-309"><stop style="stop-color:#181818;stop-opacity:1" id="stop2889" offset="0"/><stop style="stop-color:#181818;stop-opacity:0" id="stop2891" offset="1"/></linearGradient><linearGradient id="linearGradient3167" x1="25.058" x2="25.058" y1="47.028" y2="39.999" gradientUnits="userSpaceOnUse" xlink:href="#linearGradient3702-501-757"/><linearGradient id="linearGradient3702-501-757"><stop style="stop-color:#181818;stop-opacity:0" id="stop2895" offset="0"/><stop style="stop-color:#181818;stop-opacity:1" id="stop2897" offset=".5"/><stop style="stop-color:#181818;stop-opacity:0" id="stop2899" offset="1"/></linearGradient><linearGradient id="linearGradient3024" x1="30.643" x2="30.643" y1="3.916" y2="30.093" gradientTransform="matrix(1.08,0,0,1.08,-30.781639,-2.36)" gradientUnits="userSpaceOnUse" xlink:href="#linearGradient4549"/><linearGradient id="linearGradient3027" x1="24" x2="24" y1="6.24" y2="41.76" gradientTransform="matrix(0.67567568,0,0,0.67567565,-0.2162133,-0.2162086)" gradientUnits="userSpaceOnUse" xlink:href="#linearGradient3924"/><linearGradient id="linearGradient3600-1-6"><stop id="stop3602-5-1" offset="0" style="stop-color:#f4f4f4;stop-opacity:1"/><stop id="stop3604-2-0" offset="1" style="stop-color:#dbdbdb;stop-opacity:1"/></linearGradient><linearGradient id="linearGradient3016-7-4" x1="25.132" x2="25.132" y1=".985" y2="47.013" gradientTransform="matrix(0.78195308,0,0,0.59467084,-251.37137,115.90096)" gradientUnits="userSpaceOnUse" xlink:href="#linearGradient3600-1-6"/><linearGradient id="linearGradient3027-6" x1="24" x2="24" y1="6.24" y2="41.76" gradientTransform="matrix(0.67567568,0,0,0.67567565,-0.2162133,-0.2162086)" gradientUnits="userSpaceOnUse" xlink:href="#linearGradient3924-4"/><linearGradient id="linearGradient3924-4"><stop style="stop-color:#fff;stop-opacity:1" id="stop3926-8" offset="0"/><stop style="stop-color:#fff;stop-opacity:.23529412" id="stop3928-8" offset="0"/><stop style="stop-color:#fff;stop-opacity:.15686275" id="stop3930-8" offset="1"/><stop style="stop-color:#fff;stop-opacity:.39215687" id="stop3932-0" offset="1"/></linearGradient><clipPath id="clipPath16-2-4" clipPathUnits="userSpaceOnUse"><path id="path18-1-3" d="M 0,500 500,500 500,0 0,0 0,500 Z"/></clipPath></defs><metadata id="metadata4720"/><g style="display:inline" id="g2036" transform="matrix(0.6999997,0,0,0.44444486,-0.8000003,10.111104)"><g style="opacity:.4" id="g3712" transform="matrix(1.052632,0,0,1.285713,-1.263158,-13.42854)"><rect style="fill:url(#radialGradient3163);fill-opacity:1;stroke:none" id="rect2801" width="5" height="7" x="38" y="40"/><rect style="fill:url(#radialGradient3165);fill-opacity:1;stroke:none" id="rect3696" width="5" height="7" x="-10" y="-47" transform="scale(-1,-1)"/><rect style="fill:url(#linearGradient3167);fill-opacity:1;stroke:none" id="rect3700" width="28" height="7" x="10" y="40"/></g></g><rect style="color:#000;display:inline;overflow:visible;visibility:visible;fill:url(#linearGradient3016-7-4);fill-opacity:1;fill-rule:nonzero;stroke:none;stroke-width:.99999994;marker:none;enable-background:accumulate;clip-rule:nonzero;opacity:1;isolation:auto;mix-blend-mode:normal;color-interpolation:sRGB;color-interpolation-filters:linearRGB;solid-color:#000;solid-opacity:1;stroke-linecap:butt;stroke-linejoin:miter;stroke-miterlimit:4;stroke-dasharray:none;stroke-dashoffset:0;stroke-opacity:1;filter-blend-mode:normal;filter-gaussianBlur-deviation:0;color-rendering:auto;image-rendering:auto;shape-rendering:auto;text-rendering:auto" id="rect5505" width="26" height="26" x="3" y="-29" rx="1.615" ry="1.615" transform="scale(1,-1)"/><rect style="color:#000;display:inline;overflow:visible;visibility:visible;fill:none;stroke:url(#linearGradient3024);stroke-width:1;stroke-linecap:round;stroke-linejoin:round;stroke-miterlimit:4;stroke-dasharray:none;stroke-dashoffset:0;stroke-opacity:1;marker:none;enable-background:accumulate" id="rect5505-6-6" width="27" height="27" x="2.5" y="2.5" rx="2.16" ry="2.16"/><rect style="fill:none;stroke:url(#linearGradient3027);stroke-width:.99999994;stroke-linecap:round;stroke-linejoin:round;stroke-miterlimit:4;stroke-dasharray:none;stroke-dashoffset:0;stroke-opacity:1" id="rect6741-7" width="25" height="25" x="3.5" y="3.5" rx="1.087" ry="1.087"/><rect style="fill:none;stroke:url(#linearGradient3027-6);stroke-width:.99999994;stroke-linecap:round;stroke-linejoin:round;stroke-miterlimit:4;stroke-dasharray:none;stroke-dashoffset:0;stroke-opacity:1" id="rect6741-7-0" width="25" height="25" x="3.5" y="3.5" rx="1.087" ry="1.087"/><path style="opacity:.5;fill:#fff;fill-opacity:1;fill-rule:nonzero;stroke:none" id="path22-9-0" d="m 16.064453,9.3378902 c -3.134853,0 -5.930504,1.8414848 -7.2910155,4.5214848 -0.5569559,1.097189 -0.875,2.33432 -0.875,3.644531 0,1.349537 0.3391615,2.622586 0.9277344,3.744141 1.3785411,2.626368 4.1420351,4.421875 7.2382811,4.421875 2.056021,0 3.89457,-0.79288 5.273437,-2.09375 1.584052,-1.494557 2.560547,-3.660685 2.560547,-6.072266 0,-0.528344 -0.04879,-1.044537 -0.138672,-1.544922 l -0.632812,0 -2.472656,0 -4.589844,0 0,3.089844 4.658203,0 c -0.302191,1.069491 -0.937303,1.983744 -1.787109,2.615234 -0.773573,0.574791 -1.724014,0.916016 -2.769531,0.916016 -2.15649,0 -4.048431,-1.438083 -4.707032,-3.427734 -0.160306,-0.484511 -0.25,-1.000144 -0.25,-1.53711 0,-0.587136 0.104828,-1.151036 0.294922,-1.673828 0.698057,-1.919232 2.554745,-3.292969 4.66211,-3.292968 1.17094,0 2.224002,0.425029 3.041015,1.130859 L 21.43164,11.523438 C 20.042778,10.168805 18.167833,9.3378902 16.064453,9.3378902 Z"/><g style="display:inline;enable-background:new" id="g12" transform="matrix(0.06532441,0,0,-0.06532441,-0.4318964,32.835033)"><g id="g14" clip-path="url(#clipPath16-2-4)"><g id="g20" transform="translate(372.4658,250)"><path style="fill:#3284ff;fill-opacity:1;fill-rule:nonzero;stroke:none" id="path22-9" d="m 0,0 c 0,8.088 -0.745,15.988 -2.121,23.648 l -9.703,0 -37.852,0 -70.256,0 0,-47.296 71.299,0 c -4.626,-16.372 -14.354,-30.373 -27.363,-40.04 l 36.789,-29.273 C -14.958,-70.082 0,-36.917 0,0"/></g><g id="g24" transform="translate(254.0713,324.3242)"><path style="fill:#ff3424;fill-opacity:1;fill-rule:nonzero;stroke:none" id="path26" d="M 0,0 C 17.925,0 34.071,-6.489 46.578,-17.294 L 80.626,17.24 C 59.365,37.977 30.662,50.676 -1.537,50.676 c -47.989,0 -90.779,-28.187 -111.606,-69.213 l 41.798,-31.867 C -60.659,-21.024 -32.26,0 0,0"/></g><g id="g28" transform="translate(141.7104,192.7031)"><path style="fill:#fb0;fill-opacity:1;fill-rule:nonzero;stroke:none" id="path30" d="M 0,0 40.305,32.064 C 37.851,39.481 36.5,47.387 36.5,55.607 c 0,8.988 1.606,17.607 4.516,25.61 L -0.782,113.084 C -9.308,96.288 -14.176,77.354 -14.176,57.297 -14.176,36.638 -9.01,17.169 0,0"/></g><g id="g32" transform="translate(182.0156,224.7676)"><path style="fill:#26b14c;fill-opacity:1;fill-rule:nonzero;stroke:none" id="path34" d="m 0,0 -40.305,-32.064 c 21.103,-40.205 63.426,-67.704 110.824,-67.704 31.474,0 59.616,12.125 80.724,32.039 l -36.789,29.274 C 102.612,-47.254 88.061,-52.47 72.056,-52.47 39.044,-52.47 10.082,-30.458 0,0"/></g></g></g></svg>