<svg xmlns="http://www.w3.org/2000/svg" xmlns:svg="http://www.w3.org/2000/svg" xmlns:xlink="http://www.w3.org/1999/xlink" id="svg4399" width="32" height="32" version="1.1"><defs id="defs4401"><linearGradient id="linearGradient3224-3" x1="24" x2="24" y1="5" y2="37.992" gradientTransform="matrix(0.64102505,0,0,0.64102505,0.7819828,5.9079482)" gradientUnits="userSpaceOnUse" xlink:href="#linearGradient3924-803-9-8-7"/><linearGradient id="linearGradient3924-803-9-8-7"><stop id="stop3252-4-0-4" offset="0" style="stop-color:#fff;stop-opacity:1"/><stop id="stop3254-4-8-3" offset=".063" style="stop-color:#fff;stop-opacity:.23529412"/><stop id="stop3256-1-5-5" offset=".951" style="stop-color:#fff;stop-opacity:.15686275"/><stop id="stop3258-8-3-5" offset="1" style="stop-color:#fff;stop-opacity:.39215687"/></linearGradient><linearGradient id="linearGradient3211" x1="24" x2="24" y1="5" y2="43" gradientTransform="matrix(0.67567568,0,0,0.67567568,-0.21621242,-0.21620942)" gradientUnits="userSpaceOnUse" xlink:href="#linearGradient3924-118"/><linearGradient id="linearGradient3924-118"><stop id="stop3216" offset="0" style="stop-color:#fff;stop-opacity:1"/><stop id="stop3218" offset=".063" style="stop-color:#fff;stop-opacity:.23529412"/><stop id="stop3220" offset=".951" style="stop-color:#fff;stop-opacity:.15686275"/><stop id="stop3222" offset="1" style="stop-color:#fff;stop-opacity:.39215687"/></linearGradient><linearGradient id="linearGradient3234-7" x1="15" x2="15" y1="32" y2="6" gradientTransform="matrix(0.631579,0,0,0.62009179,1.8421048,1.2794495)" gradientUnits="userSpaceOnUse" xlink:href="#linearGradient3909-3-9-6"/><linearGradient id="linearGradient3909-3-9-6"><stop id="stop3911-8-7-9" offset="0" style="stop-color:#fff0bf;stop-opacity:1"/><stop id="stop3913-4-2-5" offset="1" style="stop-color:#fdde76;stop-opacity:1"/></linearGradient><linearGradient id="linearGradient3231" x1="19.567" x2="19.567" y1="38.228" y2="34.481" gradientTransform="matrix(0.65088696,0,0,0.64102505,0.3787252,-0.3939241)" gradientUnits="userSpaceOnUse" xlink:href="#linearGradient4026-8"/><linearGradient id="linearGradient4026-8"><stop id="stop4028-6" offset="0" style="stop-color:#ffeeb6;stop-opacity:1"/><stop id="stop4030-7" offset="1" style="stop-color:#feeeb7;stop-opacity:1"/></linearGradient><linearGradient id="linearGradient3237" x1="25.525" x2="25.525" y1="35.429" y2="15.738" gradientTransform="matrix(0.47103918,0,0,0.40638008,4.6951727,1.7342651)" gradientUnits="userSpaceOnUse" spreadMethod="reflect" xlink:href="#linearGradient3866-6"/><linearGradient id="linearGradient3866-6"><stop id="stop3868-7" offset="0" style="stop-color:#969696;stop-opacity:1"/><stop id="stop3872-0" offset=".5" style="stop-color:#858585;stop-opacity:.63478261"/><stop id="stop3870-0" offset="1" style="stop-color:#939393;stop-opacity:0"/></linearGradient><linearGradient id="linearGradient3240" x1="24" x2="24" y1="44" y2="3.899" gradientTransform="matrix(-0.64102505,0,0,0.64102505,31.388364,1.6153992)" gradientUnits="userSpaceOnUse" xlink:href="#linearGradient3856-8-9"/><linearGradient id="linearGradient3856-8-9"><stop id="stop3858-7-5" offset="0" style="stop-color:#b67926;stop-opacity:1"/><stop id="stop3860-2-2" offset="1" style="stop-color:#eab41a;stop-opacity:1"/></linearGradient><linearGradient id="linearGradient3245" x1="24" x2="24" y1="5" y2="43" gradientTransform="matrix(0.5135135,0,0,0.32432431,3.6756771,5.7162192)" gradientUnits="userSpaceOnUse" xlink:href="#linearGradient3924-803-0"/><linearGradient id="linearGradient3924-803-0"><stop id="stop3252-06" offset="0" style="stop-color:#fff;stop-opacity:1"/><stop id="stop3254-1" offset=".063" style="stop-color:#fff;stop-opacity:.23529412"/><stop id="stop3256-0" offset=".951" style="stop-color:#fff;stop-opacity:.15686275"/><stop id="stop3258-2" offset="1" style="stop-color:#fff;stop-opacity:.39215687"/></linearGradient><linearGradient id="linearGradient3248" x1="16.626" x2="20.055" y1="15.298" y2="24.628" gradientTransform="matrix(0.4342002,0,0,0.48796258,5.5588843,4.2126548)" gradientUnits="userSpaceOnUse" xlink:href="#linearGradient8265-821-176-38-919-66-249-7-7"/><linearGradient id="linearGradient8265-821-176-38-919-66-249-7-7"><stop id="stop2687-1-9" offset="0" style="stop-color:#fff;stop-opacity:1"/><stop id="stop2689-5-4" offset="1" style="stop-color:#fff;stop-opacity:0"/></linearGradient><linearGradient id="linearGradient3251" x1="25.525" x2="25.525" y1="30.189" y2="15.738" gradientTransform="matrix(0.47103918,0,0,0.40638008,4.6951727,0.840164)" gradientUnits="userSpaceOnUse" spreadMethod="reflect" xlink:href="#linearGradient3333-4-4"/><linearGradient id="linearGradient3333-4-4"><stop id="stop3335-4-6" offset="0" style="stop-color:#fff;stop-opacity:1"/><stop id="stop3337-7-2" offset="1" style="stop-color:#fff;stop-opacity:0"/></linearGradient><linearGradient id="linearGradient3254" x1="23.904" x2="23.904" y1="35.75" y2="20.443" gradientTransform="matrix(0.47010232,0,0,0.43369198,4.7628873,1.8375291)" gradientUnits="userSpaceOnUse" xlink:href="#linearGradient3495"/><linearGradient id="linearGradient3495"><stop id="stop3497" offset="0" style="stop-color:#000;stop-opacity:1"/><stop id="stop3874" offset=".5" style="stop-color:#000;stop-opacity:.49803922"/><stop id="stop3499" offset="1" style="stop-color:#000;stop-opacity:0"/></linearGradient><linearGradient id="linearGradient3257" x1="25.525" x2="25.525" y1="30.189" y2="15.738" gradientTransform="matrix(0.47103918,0,0,0.40638008,4.6951727,2.4900612)" gradientUnits="userSpaceOnUse" spreadMethod="reflect" xlink:href="#linearGradient3333-4"/><linearGradient id="linearGradient3333-4"><stop id="stop3335-4" offset="0" style="stop-color:#fff;stop-opacity:1"/><stop id="stop3337-7" offset="1" style="stop-color:#fff;stop-opacity:0"/></linearGradient><linearGradient id="linearGradient3260" x1="25.525" x2="25.525" y1="30.189" y2="15.738" gradientTransform="matrix(0.47103918,0,0,0.40638008,4.6951727,1.7342651)" gradientUnits="userSpaceOnUse" spreadMethod="reflect" xlink:href="#linearGradient3866"/><linearGradient id="linearGradient3866"><stop id="stop3868" offset="0" style="stop-color:#a0a0a0;stop-opacity:1"/><stop id="stop3872" offset=".5" style="stop-color:#8f8f8f;stop-opacity:.63478261"/><stop id="stop3870" offset="1" style="stop-color:#9d9d9d;stop-opacity:0"/></linearGradient><linearGradient id="linearGradient3263" x1="20.053" x2="20.053" y1="10.637" y2="45.244" gradientTransform="matrix(0.4444445,0,0,0.39393937,5.3333332,2.4696933)" gradientUnits="userSpaceOnUse" xlink:href="#linearGradient3600"/><linearGradient id="linearGradient3600"><stop id="stop3602" offset="0" style="stop-color:#f4f4f4;stop-opacity:1"/><stop id="stop3604" offset="1" style="stop-color:#dbdbdb;stop-opacity:1"/></linearGradient><radialGradient id="radialGradient3270" cx="-.949" cy="8.45" r="20" fx="-.949" fy="8.45" gradientTransform="matrix(1.4150645e-7,1.9633557,-4.1797019,0,51.317569,0.97844387)" gradientUnits="userSpaceOnUse" xlink:href="#linearGradient3846-2"/><linearGradient id="linearGradient3846-2"><stop id="stop3848-3" offset="0" style="stop-color:#fff3cb;stop-opacity:1"/><stop id="stop3850-6" offset=".313" style="stop-color:#fdde76;stop-opacity:1"/><stop id="stop3852-8" offset=".712" style="stop-color:#f9c440;stop-opacity:1"/><stop id="stop3854-1" offset="1" style="stop-color:#e48b20;stop-opacity:1"/></linearGradient><radialGradient id="radialGradient2976-573-8" cx="4.993" cy="43.5" r="2.5" fx="4.993" fy="43.5" gradientTransform="matrix(2.003784,0,0,1.4,27.98813,-17.4)" gradientUnits="userSpaceOnUse" xlink:href="#linearGradient3688-166-749-57-8"/><linearGradient id="linearGradient3688-166-749-57-8"><stop id="stop3180-3" offset="0" style="stop-color:#181818;stop-opacity:1"/><stop id="stop3182-8" offset="1" style="stop-color:#181818;stop-opacity:0"/></linearGradient><radialGradient id="radialGradient2978-786-0" cx="4.993" cy="43.5" r="2.5" fx="4.993" fy="43.5" gradientTransform="matrix(2.003784,0,0,1.4,-20.01187,-104.4)" gradientUnits="userSpaceOnUse" xlink:href="#linearGradient3688-464-309-665-9"/><linearGradient id="linearGradient3688-464-309-665-9"><stop id="stop3186-3" offset="0" style="stop-color:#181818;stop-opacity:1"/><stop id="stop3188-6" offset="1" style="stop-color:#181818;stop-opacity:0"/></linearGradient><linearGradient id="linearGradient2980-983-9" x1="25.058" x2="25.058" y1="47.028" y2="39.999" gradientUnits="userSpaceOnUse" xlink:href="#linearGradient3702-501-757-17-4"/><linearGradient id="linearGradient3702-501-757-17-4"><stop id="stop3192-0" offset="0" style="stop-color:#181818;stop-opacity:0"/><stop id="stop3194-4" offset=".5" style="stop-color:#181818;stop-opacity:1"/><stop id="stop3196-2" offset="1" style="stop-color:#181818;stop-opacity:0"/></linearGradient></defs><metadata id="metadata4404"/><g style="display:inline" id="g2036" transform="matrix(0.6999997,0,0,0.3333336,-0.8000003,15.33333)"><g style="opacity:.4" id="g3712" transform="matrix(1.052632,0,0,1.285713,-1.263158,-13.42854)"><rect style="fill:url(#radialGradient2976-573-8);fill-opacity:1;stroke:none" id="rect2801" width="5" height="7" x="38" y="40"/><rect style="fill:url(#radialGradient2978-786-0);fill-opacity:1;stroke:none" id="rect3696" width="5" height="7" x="-10" y="-47" transform="scale(-1,-1)"/><rect style="fill:url(#linearGradient2980-983-9);fill-opacity:1;stroke:none" id="rect3700" width="28" height="7" x="10" y="40"/></g></g><rect style="color:#000;display:inline;overflow:visible;visibility:visible;fill:url(#radialGradient3270);fill-opacity:1;fill-rule:nonzero;stroke:none;stroke-width:1;stroke-linecap:round;stroke-linejoin:round;stroke-miterlimit:4;stroke-dasharray:none;stroke-dashoffset:0;stroke-opacity:1;marker:none;enable-background:accumulate" id="rect5505-21" width="27" height="27" x="2.5" y="2.5" rx="2.16" ry="2.16"/><path style="color:#000;display:inline;overflow:visible;visibility:visible;fill:#b3b3b3;fill-opacity:1;fill-rule:nonzero;stroke:none;stroke-width:1;marker:none;enable-background:accumulate" id="rect4813" d="m 10,23 12,0 0,-2.5 -12,0 z"/><path style="opacity:.2;fill:none;stroke:#000;stroke-width:1px;stroke-linecap:square;stroke-linejoin:miter;stroke-opacity:1" id="path4815" d="m 10.497387,22.5 11.005227,0"/><path style="color:#000;display:inline;overflow:visible;visibility:visible;opacity:.3;fill:none;stroke:#b67926;stroke-width:.99999994;stroke-linejoin:miter;stroke-miterlimit:4;stroke-dasharray:none;stroke-opacity:1;marker:none;enable-background:accumulate" id="path7715" d="m 4.6954874,4.5067611 c -0.2073065,0 -0.1950032,0.019416 -0.1950032,0.1746179 l 0,14.413123 c 0,0.288027 -0.035963,0.385633 0.3326872,0.385633 l 4.2680551,0 c 0.7777451,0 1.4313655,-0.147646 1.3987735,0.729134 l 0,2.269861 11,0 0,-2.358632 c 0,-0.646753 0.692249,-0.640363 1.319664,-0.640363 l 4.456815,0 c 0.228176,0 0.223037,-0.0072 0.223037,-0.240397 l 0,-14.5663159 c 0,-0.2248183 -0.0095,-0.166661 -0.203622,-0.166661 z"/><path style="color:#000;display:inline;overflow:visible;visibility:visible;opacity:.1;fill:none;stroke:url(#linearGradient3240);stroke-width:1;stroke-linecap:round;stroke-linejoin:round;stroke-miterlimit:4;stroke-dasharray:none;stroke-dashoffset:0;stroke-opacity:1;marker:none;enable-background:accumulate" id="rect4076-3" d="M 27.320596,21.521813 C 27.933946,21.488413 28.466595,20.955759 28.5,20.34241 M 27.161582,21.52553 22.5,21.5 22.47785,23.139558 c 0,0.710256 -0.773193,1.379362 -1.483449,1.379362 l -10.019884,0 C 10.264259,24.51892 9.5202961,23.710256 9.5202961,23 l -0.020296,-1.5 c 0,0 -4.1186364,0.03032 -4.8168451,0.02182 -0.61335,-0.03343 -1.1459991,-0.566081 -1.1794032,-1.17943"/><g id="g8198" transform="matrix(1.0999931,0,0,1.0984226,-1.5999587,-2.6668746)"><rect id="rect2396-9-0" width="20" height="13.182" x="6" y="7.818" rx="2.821" ry="2.821" style="display:inline;overflow:visible;visibility:visible;fill:#8f8f8f;fill-opacity:1;fill-rule:evenodd;stroke:none;stroke-width:.99999994;marker:none;enable-background:accumulate"/><rect id="rect2396-9" width="20" height="13" x="6" y="7" rx="1" ry="1" style="display:inline;overflow:visible;visibility:visible;fill:url(#linearGradient3263);fill-opacity:1;fill-rule:evenodd;stroke:none;stroke-width:.99999994;marker:none;enable-background:accumulate"/><path id="path3341-2" d="m 13.482997,14.128857 -6.3475156,5.539959 z m 5.048951,0.0254 6.391677,5.412702 z" style="display:inline;overflow:visible;visibility:visible;fill:none;stroke:url(#linearGradient3260);stroke-width:.90974623;stroke-linecap:butt;stroke-linejoin:miter;stroke-miterlimit:4;stroke-dasharray:none;stroke-dashoffset:0;stroke-opacity:1;marker:none;enable-background:accumulate"/><path id="path3341-2-6" d="m 13.482997,14.884653 -5.8163111,4.99996 z m 5.048951,0.02539 4.013153,3.44119 1.788236,1.533372 z" style="display:inline;overflow:visible;visibility:visible;opacity:.7;fill:none;stroke:url(#linearGradient3257);stroke-width:.90974623;stroke-linecap:butt;stroke-linejoin:miter;stroke-miterlimit:4;stroke-dasharray:none;stroke-dashoffset:0;stroke-opacity:1;marker:none;enable-background:accumulate"/><path id="path3493" d="m 8.6812509,11.12371 7.3640921,5.689321 7.273632,-5.689321" style="opacity:.06000001;fill:none;stroke:url(#linearGradient3254);stroke-width:.90974623;stroke-linecap:butt;stroke-linejoin:miter;stroke-miterlimit:4;stroke-dasharray:none;stroke-opacity:1"/><path id="path3926" d="M 6.2197877,7.4897623 16.000113,15.063466 25.928248,7.4388328" style="display:inline;overflow:visible;visibility:visible;opacity:.7;fill:none;stroke:url(#linearGradient3251);stroke-width:.90974623;stroke-linecap:butt;stroke-linejoin:miter;stroke-miterlimit:4;stroke-dasharray:none;stroke-dashoffset:0;stroke-opacity:1;marker:none;enable-background:accumulate"/><path id="path3333" d="M 6.6835062,7 C 6.3260376,7 6,7.2187276 6,7.5515526 L 6.00665,16 C 6.5820003,15.990928 25.56329,12.68241 26,12.523266 L 26,7.6590853 C 26,7.4046837 25.698879,7.0000004 25.389352,7.0000004 Z" style="opacity:.2;fill:url(#linearGradient3248);fill-opacity:1;fill-rule:evenodd;stroke:none"/><rect id="rect6741-1-5" width="19" height="12" x="6.5" y="7.5" rx=".75" ry=".75" style="fill:none;stroke:url(#linearGradient3245);stroke-width:.90974623;stroke-linecap:round;stroke-linejoin:round;stroke-miterlimit:4;stroke-dasharray:none;stroke-dashoffset:0;stroke-opacity:1"/><path id="path3341-2-2" d="M 6.2197877,8.3838637 16.000113,15.957567 25.928248,8.3329341" style="display:inline;overflow:visible;visibility:visible;fill:none;stroke:url(#linearGradient3237);stroke-width:.90974623;stroke-linecap:butt;stroke-linejoin:miter;stroke-miterlimit:4;stroke-dasharray:none;stroke-dashoffset:0;stroke-opacity:1;marker:none;enable-background:accumulate"/></g><path style="color:#000;display:inline;overflow:visible;visibility:visible;fill:url(#linearGradient3234-7);fill-opacity:1;fill-rule:nonzero;stroke:none;stroke-width:1;marker:none;enable-background:accumulate" id="rect4047" d="M 4.5,3 C 3.669,3 3,3.669 3,4.5 l 0,15 C 3,20.331 3.669,21 4.5,21 l 5.5,0 0,-1 -5.5,0 C 4.223,20 4,19.777 4,19.5 L 4,4.5 C 4,4.223 4.223,4 4.5,4 l 23,0 C 27.777,4 28,4.223 28,4.5 l 0,15 c 0,0.277 -0.223,0.5 -0.5,0.5 l -5.5,0 0,1 5.5,0 c 0.831,0 1.5,-0.669 1.5,-1.5 l 0,-15 C 29,3.669 28.331,3 27.5,3 Z"/><rect style="opacity:.8;fill:none;stroke:url(#linearGradient3211);stroke-width:1;stroke-linecap:round;stroke-linejoin:round;stroke-miterlimit:4;stroke-dasharray:none;stroke-dashoffset:0;stroke-opacity:1" id="rect6741-7" width="25" height="25" x="3.5" y="3.5" rx="1.087" ry="1.087"/><path style="color:#000;display:inline;overflow:visible;visibility:visible;fill:none;stroke:url(#linearGradient3224-3);stroke-width:1;stroke-linecap:round;stroke-linejoin:round;stroke-miterlimit:4;stroke-dasharray:none;stroke-dashoffset:0;stroke-opacity:1;marker:none;enable-background:accumulate" id="rect4076-3-0" d="m 27.506,22.50661 -4.022867,-0.02553 0.0076,0.89476 c 0,1.097551 -1.279655,2.12416 -2.377206,2.12416 l -10.317804,0 C 9.7875882,25.5 8.5073708,24.244457 8.5073708,23.087322 L 8.4870748,22.48108 4.458,22.5029"/><path style="color:#000;display:inline;overflow:visible;visibility:visible;fill:url(#linearGradient3231);fill-opacity:1;fill-rule:nonzero;stroke:none;stroke-width:1;marker:none;enable-background:accumulate" id="rect4115" d="m 10,21.5 0,1.363636 C 10,23.493182 10.514615,24 11.153847,24 l 9.692306,0 C 21.485385,24 22,23.493182 22,22.863636 L 22,21.5 c 0,0.629545 -0.514615,1.5 -1.153847,1.5 l -9.692306,0 C 10.514615,23 10,22.129545 10,21.5 Z"/><rect id="rect5505-21-9" width="27" height="27" x="2.558" y="2.492" rx="2.16" ry="2.16" style="color:#000;display:inline;overflow:visible;visibility:visible;fill:none;fill-opacity:1;fill-rule:nonzero;stroke:#956500;stroke-width:1;stroke-linecap:round;stroke-linejoin:round;stroke-miterlimit:4;stroke-dasharray:none;stroke-dashoffset:0;stroke-opacity:1;marker:none;enable-background:accumulate;opacity:.5"/></svg>